<mxfile host="app.diagrams.net" agent="Mozilla/5.0 (Windows NT 10.0; Win64; x64) AppleWebKit/537.36 (KHTML, like Gecko) Chrome/131.0.0.0 Safari/537.36 Edg/131.0.0.0" version="24.9.3">
  <diagram id="C5RBs43oDa-KdzZeNtuy" name="Page-1">
    <mxGraphModel dx="1286" dy="289" grid="1" gridSize="10" guides="1" tooltips="1" connect="1" arrows="1" fold="1" page="1" pageScale="1" pageWidth="827" pageHeight="1169" math="0" shadow="0">
      <root>
        <mxCell id="WIyWlLk6GJQsqaUBKTNV-0" />
        <mxCell id="WIyWlLk6GJQsqaUBKTNV-1" parent="WIyWlLk6GJQsqaUBKTNV-0" />
        <mxCell id="mvioNwK95yMqdUQ73LqQ-36" value="" style="swimlane;fontFamily=Sarabun;fontSource=https%3A%2F%2Ffonts.googleapis.com%2Fcss%3Ffamily%3DSarabun;" parent="WIyWlLk6GJQsqaUBKTNV-1" vertex="1">
          <mxGeometry x="-750" y="150" width="640" height="1880" as="geometry" />
        </mxCell>
        <mxCell id="odivkgViXzAMps3ibcoz-31" style="edgeStyle=orthogonalEdgeStyle;rounded=0;orthogonalLoop=1;jettySize=auto;html=1;" parent="mvioNwK95yMqdUQ73LqQ-36" source="mvioNwK95yMqdUQ73LqQ-35" edge="1">
          <mxGeometry relative="1" as="geometry">
            <mxPoint x="320" y="90" as="targetPoint" />
          </mxGeometry>
        </mxCell>
        <mxCell id="mvioNwK95yMqdUQ73LqQ-35" value="&lt;font data-font-src=&quot;https://fonts.googleapis.com/css?family=Sarabun&quot; face=&quot;Sarabun&quot;&gt;Start&lt;/font&gt;" style="ellipse;whiteSpace=wrap;html=1;" parent="mvioNwK95yMqdUQ73LqQ-36" vertex="1">
          <mxGeometry x="255" y="40" width="130" height="30" as="geometry" />
        </mxCell>
        <mxCell id="VyoCBCsUm_KQrQsKA4gM-1" style="edgeStyle=orthogonalEdgeStyle;rounded=0;orthogonalLoop=1;jettySize=auto;html=1;" edge="1" parent="mvioNwK95yMqdUQ73LqQ-36" source="VyoCBCsUm_KQrQsKA4gM-0">
          <mxGeometry relative="1" as="geometry">
            <mxPoint x="320" y="220" as="targetPoint" />
          </mxGeometry>
        </mxCell>
        <mxCell id="VyoCBCsUm_KQrQsKA4gM-0" value="Declare a,b = 3 as float&lt;div&gt;stateBool = 0 as bool&lt;/div&gt;" style="rounded=0;whiteSpace=wrap;html=1;" vertex="1" parent="mvioNwK95yMqdUQ73LqQ-36">
          <mxGeometry x="220" y="90" width="200" height="80" as="geometry" />
        </mxCell>
        <mxCell id="VyoCBCsUm_KQrQsKA4gM-3" value="Declare i = 0 as int" style="rounded=0;whiteSpace=wrap;html=1;" vertex="1" parent="mvioNwK95yMqdUQ73LqQ-36">
          <mxGeometry x="260" y="320" width="120" height="60" as="geometry" />
        </mxCell>
        <mxCell id="VyoCBCsUm_KQrQsKA4gM-14" style="edgeStyle=orthogonalEdgeStyle;rounded=0;orthogonalLoop=1;jettySize=auto;html=1;entryX=0.5;entryY=0;entryDx=0;entryDy=0;" edge="1" parent="mvioNwK95yMqdUQ73LqQ-36" source="VyoCBCsUm_KQrQsKA4gM-6" target="VyoCBCsUm_KQrQsKA4gM-12">
          <mxGeometry relative="1" as="geometry" />
        </mxCell>
        <mxCell id="VyoCBCsUm_KQrQsKA4gM-23" style="edgeStyle=orthogonalEdgeStyle;rounded=0;orthogonalLoop=1;jettySize=auto;html=1;" edge="1" parent="mvioNwK95yMqdUQ73LqQ-36" source="VyoCBCsUm_KQrQsKA4gM-6">
          <mxGeometry relative="1" as="geometry">
            <mxPoint x="320" y="830" as="targetPoint" />
          </mxGeometry>
        </mxCell>
        <mxCell id="VyoCBCsUm_KQrQsKA4gM-6" value="stateBool != 0 ?" style="rhombus;whiteSpace=wrap;html=1;" vertex="1" parent="mvioNwK95yMqdUQ73LqQ-36">
          <mxGeometry x="267.5" y="435" width="105" height="105" as="geometry" />
        </mxCell>
        <mxCell id="VyoCBCsUm_KQrQsKA4gM-8" value="Yes" style="text;html=1;align=center;verticalAlign=middle;resizable=0;points=[];autosize=1;strokeColor=none;fillColor=none;" vertex="1" parent="mvioNwK95yMqdUQ73LqQ-36">
          <mxGeometry x="250" y="530" width="40" height="30" as="geometry" />
        </mxCell>
        <mxCell id="VyoCBCsUm_KQrQsKA4gM-9" value="No" style="text;html=1;align=center;verticalAlign=middle;resizable=0;points=[];autosize=1;strokeColor=none;fillColor=none;" vertex="1" parent="mvioNwK95yMqdUQ73LqQ-36">
          <mxGeometry x="372.5" y="440" width="40" height="30" as="geometry" />
        </mxCell>
        <mxCell id="VyoCBCsUm_KQrQsKA4gM-10" style="edgeStyle=orthogonalEdgeStyle;rounded=0;orthogonalLoop=1;jettySize=auto;html=1;entryX=0.494;entryY=0.059;entryDx=0;entryDy=0;entryPerimeter=0;" edge="1" parent="mvioNwK95yMqdUQ73LqQ-36" source="VyoCBCsUm_KQrQsKA4gM-3" target="VyoCBCsUm_KQrQsKA4gM-6">
          <mxGeometry relative="1" as="geometry" />
        </mxCell>
        <mxCell id="VyoCBCsUm_KQrQsKA4gM-18" style="edgeStyle=orthogonalEdgeStyle;rounded=0;orthogonalLoop=1;jettySize=auto;html=1;entryX=0.5;entryY=0;entryDx=0;entryDy=0;" edge="1" parent="mvioNwK95yMqdUQ73LqQ-36" source="VyoCBCsUm_KQrQsKA4gM-12" target="VyoCBCsUm_KQrQsKA4gM-15">
          <mxGeometry relative="1" as="geometry" />
        </mxCell>
        <mxCell id="VyoCBCsUm_KQrQsKA4gM-25" style="edgeStyle=orthogonalEdgeStyle;rounded=0;orthogonalLoop=1;jettySize=auto;html=1;" edge="1" parent="mvioNwK95yMqdUQ73LqQ-36" source="VyoCBCsUm_KQrQsKA4gM-12">
          <mxGeometry relative="1" as="geometry">
            <mxPoint x="320" y="980" as="targetPoint" />
            <Array as="points">
              <mxPoint x="580" y="560" />
              <mxPoint x="580" y="980" />
            </Array>
          </mxGeometry>
        </mxCell>
        <mxCell id="VyoCBCsUm_KQrQsKA4gM-12" value="i &amp;lt;= 5 ?" style="rhombus;whiteSpace=wrap;html=1;" vertex="1" parent="mvioNwK95yMqdUQ73LqQ-36">
          <mxGeometry x="440" y="520" width="80" height="80" as="geometry" />
        </mxCell>
        <mxCell id="VyoCBCsUm_KQrQsKA4gM-26" style="edgeStyle=orthogonalEdgeStyle;rounded=0;orthogonalLoop=1;jettySize=auto;html=1;" edge="1" parent="mvioNwK95yMqdUQ73LqQ-36" source="VyoCBCsUm_KQrQsKA4gM-13">
          <mxGeometry relative="1" as="geometry">
            <mxPoint x="320" y="1010" as="targetPoint" />
          </mxGeometry>
        </mxCell>
        <mxCell id="VyoCBCsUm_KQrQsKA4gM-13" value="Display ok" style="shape=parallelogram;perimeter=parallelogramPerimeter;whiteSpace=wrap;html=1;fixedSize=1;" vertex="1" parent="mvioNwK95yMqdUQ73LqQ-36">
          <mxGeometry x="260" y="830" width="120" height="60" as="geometry" />
        </mxCell>
        <mxCell id="VyoCBCsUm_KQrQsKA4gM-22" style="edgeStyle=orthogonalEdgeStyle;rounded=0;orthogonalLoop=1;jettySize=auto;html=1;entryX=0.5;entryY=0;entryDx=0;entryDy=0;" edge="1" parent="mvioNwK95yMqdUQ73LqQ-36" source="VyoCBCsUm_KQrQsKA4gM-15" target="VyoCBCsUm_KQrQsKA4gM-16">
          <mxGeometry relative="1" as="geometry" />
        </mxCell>
        <mxCell id="VyoCBCsUm_KQrQsKA4gM-15" value="Display not-okey" style="shape=parallelogram;perimeter=parallelogramPerimeter;whiteSpace=wrap;html=1;fixedSize=1;" vertex="1" parent="mvioNwK95yMqdUQ73LqQ-36">
          <mxGeometry x="420" y="640" width="120" height="60" as="geometry" />
        </mxCell>
        <mxCell id="VyoCBCsUm_KQrQsKA4gM-21" style="edgeStyle=orthogonalEdgeStyle;rounded=0;orthogonalLoop=1;jettySize=auto;html=1;entryX=0;entryY=0.5;entryDx=0;entryDy=0;" edge="1" parent="mvioNwK95yMqdUQ73LqQ-36" source="VyoCBCsUm_KQrQsKA4gM-16" target="VyoCBCsUm_KQrQsKA4gM-12">
          <mxGeometry relative="1" as="geometry">
            <Array as="points">
              <mxPoint x="400" y="745" />
              <mxPoint x="400" y="560" />
            </Array>
          </mxGeometry>
        </mxCell>
        <mxCell id="VyoCBCsUm_KQrQsKA4gM-16" value="i++" style="rounded=0;whiteSpace=wrap;html=1;" vertex="1" parent="mvioNwK95yMqdUQ73LqQ-36">
          <mxGeometry x="430" y="720" width="100" height="50" as="geometry" />
        </mxCell>
        <mxCell id="VyoCBCsUm_KQrQsKA4gM-33" style="edgeStyle=orthogonalEdgeStyle;rounded=0;orthogonalLoop=1;jettySize=auto;html=1;entryX=0.5;entryY=0;entryDx=0;entryDy=0;" edge="1" parent="mvioNwK95yMqdUQ73LqQ-36" source="VyoCBCsUm_KQrQsKA4gM-27" target="VyoCBCsUm_KQrQsKA4gM-32">
          <mxGeometry relative="1" as="geometry" />
        </mxCell>
        <mxCell id="VyoCBCsUm_KQrQsKA4gM-55" style="edgeStyle=orthogonalEdgeStyle;rounded=0;orthogonalLoop=1;jettySize=auto;html=1;entryX=0.5;entryY=0;entryDx=0;entryDy=0;" edge="1" parent="mvioNwK95yMqdUQ73LqQ-36" source="VyoCBCsUm_KQrQsKA4gM-27" target="VyoCBCsUm_KQrQsKA4gM-56">
          <mxGeometry relative="1" as="geometry">
            <mxPoint x="320" y="1600" as="targetPoint" />
            <Array as="points">
              <mxPoint x="570" y="1130" />
              <mxPoint x="570" y="1600" />
              <mxPoint x="325" y="1600" />
            </Array>
          </mxGeometry>
        </mxCell>
        <mxCell id="VyoCBCsUm_KQrQsKA4gM-27" value="i &amp;lt; 10 ?" style="rhombus;whiteSpace=wrap;html=1;" vertex="1" parent="mvioNwK95yMqdUQ73LqQ-36">
          <mxGeometry x="280" y="1090" width="80" height="80" as="geometry" />
        </mxCell>
        <mxCell id="VyoCBCsUm_KQrQsKA4gM-29" style="edgeStyle=orthogonalEdgeStyle;rounded=0;orthogonalLoop=1;jettySize=auto;html=1;entryX=0.5;entryY=0;entryDx=0;entryDy=0;" edge="1" parent="mvioNwK95yMqdUQ73LqQ-36" source="VyoCBCsUm_KQrQsKA4gM-28" target="VyoCBCsUm_KQrQsKA4gM-27">
          <mxGeometry relative="1" as="geometry" />
        </mxCell>
        <mxCell id="VyoCBCsUm_KQrQsKA4gM-28" value="i = 3" style="rounded=0;whiteSpace=wrap;html=1;" vertex="1" parent="mvioNwK95yMqdUQ73LqQ-36">
          <mxGeometry x="280" y="1010" width="80" height="40" as="geometry" />
        </mxCell>
        <mxCell id="VyoCBCsUm_KQrQsKA4gM-30" value="Yes" style="text;html=1;align=center;verticalAlign=middle;resizable=0;points=[];autosize=1;strokeColor=none;fillColor=none;" vertex="1" parent="mvioNwK95yMqdUQ73LqQ-36">
          <mxGeometry x="430" y="600" width="40" height="30" as="geometry" />
        </mxCell>
        <mxCell id="VyoCBCsUm_KQrQsKA4gM-31" value="No" style="text;html=1;align=center;verticalAlign=middle;resizable=0;points=[];autosize=1;strokeColor=none;fillColor=none;" vertex="1" parent="mvioNwK95yMqdUQ73LqQ-36">
          <mxGeometry x="520" y="520" width="40" height="30" as="geometry" />
        </mxCell>
        <mxCell id="VyoCBCsUm_KQrQsKA4gM-34" style="edgeStyle=orthogonalEdgeStyle;rounded=0;orthogonalLoop=1;jettySize=auto;html=1;" edge="1" parent="mvioNwK95yMqdUQ73LqQ-36" source="VyoCBCsUm_KQrQsKA4gM-32">
          <mxGeometry relative="1" as="geometry">
            <mxPoint x="320" y="1370" as="targetPoint" />
          </mxGeometry>
        </mxCell>
        <mxCell id="VyoCBCsUm_KQrQsKA4gM-40" style="edgeStyle=orthogonalEdgeStyle;rounded=0;orthogonalLoop=1;jettySize=auto;html=1;entryX=0.5;entryY=0;entryDx=0;entryDy=0;" edge="1" parent="mvioNwK95yMqdUQ73LqQ-36" source="VyoCBCsUm_KQrQsKA4gM-32" target="VyoCBCsUm_KQrQsKA4gM-41">
          <mxGeometry relative="1" as="geometry">
            <mxPoint x="490" y="1340" as="targetPoint" />
          </mxGeometry>
        </mxCell>
        <mxCell id="VyoCBCsUm_KQrQsKA4gM-32" value="i % 2 == 1?" style="rhombus;whiteSpace=wrap;html=1;" vertex="1" parent="mvioNwK95yMqdUQ73LqQ-36">
          <mxGeometry x="280" y="1220" width="80" height="80" as="geometry" />
        </mxCell>
        <mxCell id="VyoCBCsUm_KQrQsKA4gM-46" style="edgeStyle=orthogonalEdgeStyle;rounded=0;orthogonalLoop=1;jettySize=auto;html=1;" edge="1" parent="mvioNwK95yMqdUQ73LqQ-36" source="VyoCBCsUm_KQrQsKA4gM-35">
          <mxGeometry relative="1" as="geometry">
            <mxPoint x="320" y="1470" as="targetPoint" />
          </mxGeometry>
        </mxCell>
        <mxCell id="VyoCBCsUm_KQrQsKA4gM-35" value="Display see see" style="shape=parallelogram;perimeter=parallelogramPerimeter;whiteSpace=wrap;html=1;fixedSize=1;" vertex="1" parent="mvioNwK95yMqdUQ73LqQ-36">
          <mxGeometry x="260" y="1370" width="120" height="60" as="geometry" />
        </mxCell>
        <mxCell id="VyoCBCsUm_KQrQsKA4gM-36" value="Yes" style="text;html=1;align=center;verticalAlign=middle;resizable=0;points=[];autosize=1;strokeColor=none;fillColor=none;" vertex="1" parent="mvioNwK95yMqdUQ73LqQ-36">
          <mxGeometry x="267.5" y="1160" width="40" height="30" as="geometry" />
        </mxCell>
        <mxCell id="VyoCBCsUm_KQrQsKA4gM-37" value="No" style="text;html=1;align=center;verticalAlign=middle;resizable=0;points=[];autosize=1;strokeColor=none;fillColor=none;" vertex="1" parent="mvioNwK95yMqdUQ73LqQ-36">
          <mxGeometry x="345" y="1080" width="40" height="30" as="geometry" />
        </mxCell>
        <mxCell id="VyoCBCsUm_KQrQsKA4gM-38" value="Yes" style="text;html=1;align=center;verticalAlign=middle;resizable=0;points=[];autosize=1;strokeColor=none;fillColor=none;" vertex="1" parent="mvioNwK95yMqdUQ73LqQ-36">
          <mxGeometry x="255" y="1300" width="40" height="30" as="geometry" />
        </mxCell>
        <mxCell id="VyoCBCsUm_KQrQsKA4gM-39" value="No" style="text;html=1;align=center;verticalAlign=middle;resizable=0;points=[];autosize=1;strokeColor=none;fillColor=none;" vertex="1" parent="mvioNwK95yMqdUQ73LqQ-36">
          <mxGeometry x="332.5" y="1290" width="40" height="30" as="geometry" />
        </mxCell>
        <mxCell id="VyoCBCsUm_KQrQsKA4gM-47" style="edgeStyle=orthogonalEdgeStyle;rounded=0;orthogonalLoop=1;jettySize=auto;html=1;entryX=1;entryY=0.5;entryDx=0;entryDy=0;" edge="1" parent="mvioNwK95yMqdUQ73LqQ-36" source="VyoCBCsUm_KQrQsKA4gM-41" target="VyoCBCsUm_KQrQsKA4gM-45">
          <mxGeometry relative="1" as="geometry">
            <Array as="points">
              <mxPoint x="490" y="1485" />
            </Array>
          </mxGeometry>
        </mxCell>
        <mxCell id="VyoCBCsUm_KQrQsKA4gM-41" value="Display haha" style="shape=parallelogram;perimeter=parallelogramPerimeter;whiteSpace=wrap;html=1;fixedSize=1;" vertex="1" parent="mvioNwK95yMqdUQ73LqQ-36">
          <mxGeometry x="430" y="1370" width="120" height="60" as="geometry" />
        </mxCell>
        <mxCell id="VyoCBCsUm_KQrQsKA4gM-53" style="edgeStyle=orthogonalEdgeStyle;rounded=0;orthogonalLoop=1;jettySize=auto;html=1;" edge="1" parent="mvioNwK95yMqdUQ73LqQ-36" source="VyoCBCsUm_KQrQsKA4gM-42">
          <mxGeometry relative="1" as="geometry">
            <mxPoint x="320" y="1070" as="targetPoint" />
            <Array as="points">
              <mxPoint x="160" y="1070" />
            </Array>
          </mxGeometry>
        </mxCell>
        <mxCell id="VyoCBCsUm_KQrQsKA4gM-42" value="i++" style="rounded=0;whiteSpace=wrap;html=1;" vertex="1" parent="mvioNwK95yMqdUQ73LqQ-36">
          <mxGeometry x="100" y="1455" width="120" height="60" as="geometry" />
        </mxCell>
        <mxCell id="VyoCBCsUm_KQrQsKA4gM-51" style="edgeStyle=orthogonalEdgeStyle;rounded=0;orthogonalLoop=1;jettySize=auto;html=1;entryX=1;entryY=0.5;entryDx=0;entryDy=0;" edge="1" parent="mvioNwK95yMqdUQ73LqQ-36" source="VyoCBCsUm_KQrQsKA4gM-45" target="VyoCBCsUm_KQrQsKA4gM-42">
          <mxGeometry relative="1" as="geometry" />
        </mxCell>
        <mxCell id="VyoCBCsUm_KQrQsKA4gM-45" value="" style="ellipse;whiteSpace=wrap;html=1;aspect=fixed;" vertex="1" parent="mvioNwK95yMqdUQ73LqQ-36">
          <mxGeometry x="302.5" y="1470" width="30" height="30" as="geometry" />
        </mxCell>
        <mxCell id="VyoCBCsUm_KQrQsKA4gM-56" value="&lt;font data-font-src=&quot;https://fonts.googleapis.com/css?family=Sarabun&quot; face=&quot;Sarabun&quot;&gt;END&lt;/font&gt;" style="ellipse;whiteSpace=wrap;html=1;" vertex="1" parent="mvioNwK95yMqdUQ73LqQ-36">
          <mxGeometry x="260" y="1640" width="130" height="30" as="geometry" />
        </mxCell>
        <mxCell id="VyoCBCsUm_KQrQsKA4gM-5" style="edgeStyle=orthogonalEdgeStyle;rounded=0;orthogonalLoop=1;jettySize=auto;html=1;" edge="1" parent="WIyWlLk6GJQsqaUBKTNV-1" source="VyoCBCsUm_KQrQsKA4gM-2">
          <mxGeometry relative="1" as="geometry">
            <mxPoint x="-420" y="470" as="targetPoint" />
          </mxGeometry>
        </mxCell>
        <mxCell id="VyoCBCsUm_KQrQsKA4gM-2" value="Output stateBool" style="shape=parallelogram;perimeter=parallelogramPerimeter;whiteSpace=wrap;html=1;fixedSize=1;" vertex="1" parent="WIyWlLk6GJQsqaUBKTNV-1">
          <mxGeometry x="-480" y="370" width="120" height="60" as="geometry" />
        </mxCell>
      </root>
    </mxGraphModel>
  </diagram>
</mxfile>
